<svg xmlns="http://www.w3.org/2000/svg" viewBox="0 0 128 128" width="128" height="128"><title>Mop</title><g stroke="#8cd5b5" stroke-width="3" stroke-linecap="round" stroke-linejoin="round"><path d="M57 16q0-6 7-6t7 6v65H57Z" fill="#10271d" /><path d="M41 76h46v12H41Z" fill="#17684f" /><path d="M43 88h42l11 19q-4 7-10 2-7 8-14 1-7 8-14 0-7 6-14-1-6 5-11-2Z" fill="#26372d" /><path d="M48 91q-7 8 -7 18" fill="none" /><path d="M57 91q-3 8 -3 18" fill="none" /><path d="M66 91q0 8 0 18" fill="none" /><path d="M75 91q3 8 3 18" fill="none" /><path d="M83 91q6 8 6 18" fill="none" /></g></svg>
